<svg width="139" height="42" viewBox="0 0 139 42" fill="none" xmlns="http://www.w3.org/2000/svg">
<path d="M7.92 8.78C6.53333 8.78 5.44 9.36667 4.64 10.54C3.90667 11.5933 3.54 12.9 3.54 14.46C3.54 16.0333 3.90667 17.3467 4.64 18.4C5.44 19.5733 6.53333 20.16 7.92 20.16C9.30667 20.16 10.4 19.5733 11.2 18.4C11.92 17.3467 12.28 16.0333 12.28 14.46C12.28 12.9133 11.92 11.6067 11.2 10.54C10.4 9.36667 9.30667 8.78 7.92 8.78ZM7.92 6.76C10.0533 6.76 11.7133 7.55333 12.9 9.14C13.9533 10.5533 14.4733 12.3267 14.46 14.46C14.4333 16.7933 13.8867 18.6333 12.82 19.98C11.66 21.4467 10.0267 22.18 7.92 22.18C5.82667 22.18 4.18667 21.4467 3 19.98C1.90667 18.6067 1.36 16.7667 1.36 14.46C1.36 12.3 1.88 10.52 2.92 9.12C4.09333 7.54667 5.76 6.76 7.92 6.76ZM19.9022 13.84H20.4022C21.6022 13.84 22.4489 13.6933 22.9422 13.4C23.5689 13.04 23.8822 12.38 23.8822 11.42C23.8822 9.84667 23.1422 9.06 21.6622 9.06H19.9022V13.84ZM17.7222 7.02H21.4822C22.9489 7.02 24.0689 7.38667 24.8422 8.12C25.6689 8.86667 26.0822 9.96667 26.0822 11.42C26.0822 12.8067 25.6289 13.9133 24.7222 14.74C23.8555 15.5 22.7289 15.88 21.3422 15.88H19.9022V21.94H17.7222V7.02ZM36.1806 21.94H28.5806V7.02H35.9606V9.06H30.7606V13.22H35.6806V15.26H30.7606V19.88H36.1806V21.94ZM50.3391 21.94H47.9391L41.5391 10.76V21.94H39.3791V7.02H41.6791L48.1791 18.38V7.02H50.3391V21.94Z" fill="#94B49F"/>
<path d="M57.9922 21.2852L61.8828 21.1562C62.4531 21.1406 62.9375 21.0781 63.3359 20.9688C63.7344 20.8516 64.0781 20.6719 64.3672 20.4297C64.6562 20.1797 64.8906 19.9219 65.0703 19.6562C65.2578 19.3828 65.4648 19.0195 65.6914 18.5664L66.0312 18.707L64.8828 21.8359L64.6836 22H56.4102C56.2617 21.6719 56.1875 21.2891 56.1875 20.8516V8.51172C56.1875 7.41016 56.0547 6.66797 55.7891 6.28516C55.5312 5.90234 54.9766 5.74219 54.125 5.80469L54.0781 5.58203C55.3672 5.19922 56.5938 5.00781 57.7578 5.00781C57.9141 5.4375 57.9922 5.88672 57.9922 6.35547V21.2852ZM69.8164 13.3164C69.8164 12.207 69.6836 11.4648 69.418 11.0898C69.1602 10.707 68.6055 10.543 67.7539 10.5977L67.707 10.3867C68.9961 10.0039 70.1797 9.8125 71.2578 9.8125C71.4219 10.2188 71.5039 10.6641 71.5039 11.1484V19.8906C71.5039 20.5078 71.6484 20.9648 71.9375 21.2617C72.2266 21.5586 72.7383 21.7734 73.4727 21.9062L73.3789 22.1875C72.4805 22.0625 71.7852 22 71.293 22C70.8086 22 70.2617 22.0625 69.6523 22.1875L69.582 22.0703C69.7383 21.8438 69.8164 21.4297 69.8164 20.8281V13.3164ZM68.6211 5.46484C69.3633 5.03516 70.2031 4.67578 71.1406 4.38672C71.1406 5.03516 71.2461 5.67578 71.457 6.30859L71.3047 6.51953C70.5625 6.56641 69.7891 6.77344 68.9844 7.14062C68.7891 6.60156 68.668 6.04297 68.6211 5.46484ZM78.4648 11.8281C79.1523 11.125 79.8438 10.6133 80.5391 10.293C81.2344 9.97266 82 9.8125 82.8359 9.8125C83.5391 9.8125 84.1836 9.97656 84.7695 10.3047C85.3633 10.625 85.8516 11.0508 86.2344 11.582C86.6172 12.1133 86.9141 12.7148 87.125 13.3867C87.3359 14.0508 87.4414 14.7383 87.4414 15.4492C87.4414 17.543 86.8867 19.1992 85.7773 20.418C84.6758 21.6289 83.0781 22.2344 80.9844 22.2344C80.1484 22.2344 79.332 22.1641 78.5352 22.0234H78.5117C77.7383 22.0234 77.1133 22.1055 76.6367 22.2695L76.543 22.0703C76.6445 21.9219 76.707 21.7578 76.7305 21.5781C76.7617 21.3906 76.7773 21.0586 76.7773 20.582V6.78906C76.7773 5.75781 76.6641 5.04687 76.4375 4.65625C76.2188 4.26563 75.7578 4.07031 75.0547 4.07031H74.7148L74.668 3.85938C75.957 3.47656 77.1406 3.28516 78.2188 3.28516C78.3828 3.69141 78.4648 4.13672 78.4648 4.62109V11.8281ZM78.4648 12.7656V20.6523C78.8398 20.8555 79.3359 21.0234 79.9531 21.1562C80.5781 21.2891 81.2031 21.3555 81.8281 21.3555C82.4375 21.3555 82.9648 21.2734 83.4102 21.1094C83.8633 20.9375 84.2266 20.7109 84.5 20.4297C84.7734 20.1406 84.9922 19.7656 85.1562 19.3047C85.3281 18.8438 85.4414 18.3594 85.4961 17.8516C85.5586 17.3438 85.5898 16.75 85.5898 16.0703C85.5898 14.2891 85.2891 12.9414 84.6875 12.0273C84.0859 11.1055 83.2891 10.6445 82.2969 10.6445C81.6797 10.6445 81.0352 10.8281 80.3633 11.1953C79.6992 11.5547 79.0664 12.0781 78.4648 12.7656ZM91.3555 13.3164C91.3555 12.793 91.3281 12.3555 91.2734 12.0039C91.2266 11.6523 91.1367 11.3711 91.0039 11.1602C90.8789 10.9492 90.7031 10.8008 90.4766 10.7148C90.25 10.6289 89.8555 10.5898 89.293 10.5977L89.2461 10.3867C90.5195 10.0039 91.7031 9.8125 92.7969 9.8125C92.9609 10.2266 93.043 10.6719 93.043 11.1484V12.5898L93.0898 12.6367C93.418 12.1836 93.7305 11.7812 94.0273 11.4297C94.332 11.0781 94.6406 10.7852 94.9531 10.5508C95.2656 10.3164 95.5938 10.1406 95.9375 10.0234C96.2812 9.89844 96.6641 9.83594 97.0859 9.83594C97.3516 9.83594 97.6445 9.85938 97.9648 9.90625L97.2852 12.7656L96.8516 12.6367C96.8516 12.5195 96.8438 12.3594 96.8281 12.1562C96.8125 11.9531 96.7891 11.7539 96.7578 11.5586C96.7344 11.3555 96.6992 11.1836 96.6523 11.043C96.6133 10.8945 96.5664 10.8203 96.5117 10.8203C96.2852 10.8203 96.0547 10.8711 95.8203 10.9727C95.5938 11.0664 95.3438 11.2227 95.0703 11.4414C94.7969 11.6602 94.4961 11.9453 94.168 12.2969C93.8398 12.6484 93.4648 13.0742 93.043 13.5742V20.3945C93.043 20.6445 93.0625 20.8477 93.1016 21.0039C93.1406 21.1523 93.2227 21.2773 93.3477 21.3789C93.4727 21.4805 93.6484 21.5703 93.875 21.6484C94.1016 21.7266 94.3984 21.8125 94.7656 21.9062L94.6719 22.1875C94.2188 22.125 93.832 22.0781 93.5117 22.0469C93.1992 22.0156 92.9453 22 92.75 22C92.3047 22 91.7852 22.0625 91.1914 22.1875L91.1211 22.0703C91.2773 21.8438 91.3555 21.4297 91.3555 20.8281V13.3164ZM108.523 20.6758C108.523 20.8086 108.551 20.9336 108.605 21.0508C108.668 21.1602 108.738 21.2539 108.816 21.332C108.902 21.4023 109.023 21.4727 109.18 21.543C109.336 21.6133 109.473 21.668 109.59 21.707C109.707 21.7461 109.871 21.7969 110.082 21.8594L109.988 22.1406C109.488 22.0469 108.992 22 108.5 22C107.883 22 107.273 22.0625 106.672 22.1875L106.602 22.0703C106.766 21.8438 106.848 21.4297 106.848 20.8281V20.0547C106.457 20.7812 105.848 21.3672 105.02 21.8125C104.199 22.2578 103.367 22.4805 102.523 22.4805C101.625 22.4805 100.898 22.25 100.344 21.7891C99.7969 21.3203 99.5234 20.6289 99.5234 19.7148C99.5234 19.1211 99.6445 18.5938 99.8867 18.1328C100.137 17.6641 100.465 17.2695 100.871 16.9492C101.285 16.6211 101.812 16.332 102.453 16.082C103.102 15.832 103.766 15.6289 104.445 15.4727C105.133 15.3164 105.934 15.1719 106.848 15.0391V13.9609C106.848 11.8125 106 10.7383 104.305 10.7383C103.758 10.7383 103.086 10.875 102.289 11.1484C101.5 11.4141 100.836 11.7656 100.297 12.2031L99.8164 11.6523C100.496 11.1133 101.301 10.668 102.23 10.3164C103.168 9.96484 104.043 9.78906 104.855 9.78906C105.215 9.78906 105.555 9.82422 105.875 9.89453C106.203 9.95703 106.531 10.0781 106.859 10.2578C107.195 10.4297 107.48 10.6523 107.715 10.9258C107.957 11.1914 108.152 11.5508 108.301 12.0039C108.449 12.4492 108.523 12.957 108.523 13.5273V20.6758ZM103.074 21.5898C103.754 21.5898 104.465 21.3672 105.207 20.9219C105.949 20.4688 106.496 19.9062 106.848 19.2344V15.6602C104.848 15.9492 103.418 16.3945 102.559 16.9961C101.707 17.5898 101.281 18.457 101.281 19.5977C101.281 20.293 101.43 20.8008 101.727 21.1211C102.023 21.4336 102.473 21.5898 103.074 21.5898ZM113.879 13.3164C113.879 12.793 113.852 12.3555 113.797 12.0039C113.75 11.6523 113.66 11.3711 113.527 11.1602C113.402 10.9492 113.227 10.8008 113 10.7148C112.773 10.6289 112.379 10.5898 111.816 10.5977L111.77 10.3867C113.043 10.0039 114.227 9.8125 115.32 9.8125C115.484 10.2266 115.566 10.6719 115.566 11.1484V12.5898L115.613 12.6367C115.941 12.1836 116.254 11.7812 116.551 11.4297C116.855 11.0781 117.164 10.7852 117.477 10.5508C117.789 10.3164 118.117 10.1406 118.461 10.0234C118.805 9.89844 119.188 9.83594 119.609 9.83594C119.875 9.83594 120.168 9.85938 120.488 9.90625L119.809 12.7656L119.375 12.6367C119.375 12.5195 119.367 12.3594 119.352 12.1562C119.336 11.9531 119.312 11.7539 119.281 11.5586C119.258 11.3555 119.223 11.1836 119.176 11.043C119.137 10.8945 119.09 10.8203 119.035 10.8203C118.809 10.8203 118.578 10.8711 118.344 10.9727C118.117 11.0664 117.867 11.2227 117.594 11.4414C117.32 11.6602 117.02 11.9453 116.691 12.2969C116.363 12.6484 115.988 13.0742 115.566 13.5742V20.3945C115.566 20.6445 115.586 20.8477 115.625 21.0039C115.664 21.1523 115.746 21.2773 115.871 21.3789C115.996 21.4805 116.172 21.5703 116.398 21.6484C116.625 21.7266 116.922 21.8125 117.289 21.9062L117.195 22.1875C116.742 22.125 116.355 22.0781 116.035 22.0469C115.723 22.0156 115.469 22 115.273 22C114.828 22 114.309 22.0625 113.715 22.1875L113.645 22.0703C113.801 21.8438 113.879 21.4297 113.879 20.8281V13.3164ZM133.109 10.1641L128.117 23.1016C127.906 23.6562 127.723 24.1133 127.566 24.4727C127.418 24.832 127.242 25.2031 127.039 25.5859C126.836 25.9766 126.637 26.293 126.441 26.5352C126.254 26.7773 126.031 26.9961 125.773 27.1914C125.523 27.3945 125.25 27.5508 124.953 27.6602C123.711 27.707 122.621 27.2852 121.684 26.3945C122.105 25.8789 122.691 25.4375 123.441 25.0703L123.582 25.2109C123.895 25.9375 124.398 26.4609 125.094 26.7812C125.43 26.5078 125.773 26.0547 126.125 25.4219C126.484 24.7969 126.926 23.7773 127.449 22.3633L123.277 12.4961C123.059 11.9414 122.812 11.543 122.539 11.3008C122.273 11.0586 121.996 10.9414 121.707 10.9492C121.426 10.957 121.102 10.9844 120.734 11.0312L120.605 10.7969C121.918 10.1406 123.07 9.8125 124.062 9.8125L127.59 18.4023C127.746 18.7773 127.93 19.4961 128.141 20.5586H128.34C128.715 19.3164 128.906 18.6836 128.914 18.6602L131.527 11.1719C131.629 10.8906 131.512 10.6914 131.176 10.5742C130.84 10.4492 130.332 10.418 129.652 10.4805L129.582 10.1875C130.246 10.0547 131.375 9.96875 132.969 9.92969L133.109 10.1641Z" fill="black"/>
<path d="M89.86 31.48H88.9V37H89.86V31.48ZM91.528 32.536L92.056 31.744C91.912 31.592 91.752 31.492 91.576 31.444C91.408 31.388 91.224 31.36 91.024 31.36C90.768 31.36 90.516 31.46 90.268 31.66C90.02 31.86 89.816 32.132 89.656 32.476C89.504 32.812 89.428 33.2 89.428 33.64H89.86C89.86 33.376 89.884 33.14 89.932 32.932C89.988 32.724 90.084 32.56 90.22 32.44C90.356 32.32 90.544 32.26 90.784 32.26C90.944 32.26 91.076 32.284 91.18 32.332C91.284 32.372 91.4 32.44 91.528 32.536ZM94.9735 37.12C95.5655 37.12 96.0775 37.004 96.5095 36.772C96.9495 36.532 97.3135 36.18 97.6015 35.716L96.8215 35.224C96.6215 35.56 96.3775 35.812 96.0895 35.98C95.8015 36.14 95.4695 36.22 95.0935 36.22C94.7175 36.22 94.3975 36.14 94.1335 35.98C93.8695 35.82 93.6695 35.588 93.5335 35.284C93.3975 34.98 93.3295 34.612 93.3295 34.18C93.3375 33.756 93.4095 33.4 93.5455 33.112C93.6895 32.816 93.8895 32.592 94.1455 32.44C94.4095 32.28 94.7255 32.2 95.0935 32.2C95.4055 32.2 95.6775 32.268 95.9095 32.404C96.1415 32.54 96.3215 32.728 96.4495 32.968C96.5855 33.208 96.6535 33.492 96.6535 33.82C96.6535 33.876 96.6415 33.948 96.6175 34.036C96.5935 34.116 96.5695 34.176 96.5455 34.216L96.9295 33.664H92.9695V34.48H97.6855C97.6855 34.464 97.6855 34.428 97.6855 34.372C97.6935 34.308 97.6975 34.248 97.6975 34.192C97.6975 33.608 97.5935 33.104 97.3855 32.68C97.1775 32.256 96.8775 31.932 96.4855 31.708C96.1015 31.476 95.6375 31.36 95.0935 31.36C94.5495 31.36 94.0695 31.48 93.6535 31.72C93.2455 31.96 92.9255 32.296 92.6935 32.728C92.4695 33.16 92.3575 33.664 92.3575 34.24C92.3575 34.808 92.4655 35.308 92.6815 35.74C92.9055 36.172 93.2135 36.512 93.6055 36.76C94.0055 37 94.4615 37.12 94.9735 37.12ZM103.153 27.64V37H104.113V27.64H103.153ZM98.5333 34.24C98.5333 34.832 98.6573 35.344 98.9053 35.776C99.1533 36.208 99.4853 36.54 99.9013 36.772C100.317 37.004 100.773 37.12 101.269 37.12C101.733 37.12 102.137 37.004 102.481 36.772C102.825 36.54 103.093 36.208 103.285 35.776C103.485 35.344 103.585 34.832 103.585 34.24C103.585 33.64 103.485 33.128 103.285 32.704C103.093 32.272 102.825 31.94 102.481 31.708C102.137 31.476 101.733 31.36 101.269 31.36C100.773 31.36 100.317 31.476 99.9013 31.708C99.4853 31.94 99.1533 32.272 98.9053 32.704C98.6573 33.128 98.5333 33.64 98.5333 34.24ZM99.5053 34.24C99.5053 33.816 99.5893 33.456 99.7573 33.16C99.9333 32.864 100.165 32.64 100.453 32.488C100.741 32.336 101.053 32.26 101.389 32.26C101.669 32.26 101.945 32.336 102.217 32.488C102.489 32.64 102.713 32.864 102.889 33.16C103.065 33.456 103.153 33.816 103.153 34.24C103.153 34.664 103.065 35.024 102.889 35.32C102.713 35.616 102.489 35.84 102.217 35.992C101.945 36.144 101.669 36.22 101.389 36.22C101.053 36.22 100.741 36.144 100.453 35.992C100.165 35.84 99.9333 35.616 99.7573 35.32C99.5893 35.024 99.5053 34.664 99.5053 34.24ZM107.993 37.12C108.585 37.12 109.097 37.004 109.529 36.772C109.969 36.532 110.333 36.18 110.621 35.716L109.841 35.224C109.641 35.56 109.397 35.812 109.109 35.98C108.821 36.14 108.489 36.22 108.113 36.22C107.737 36.22 107.417 36.14 107.153 35.98C106.889 35.82 106.689 35.588 106.553 35.284C106.417 34.98 106.349 34.612 106.349 34.18C106.357 33.756 106.429 33.4 106.565 33.112C106.709 32.816 106.909 32.592 107.165 32.44C107.429 32.28 107.745 32.2 108.113 32.2C108.425 32.2 108.697 32.268 108.929 32.404C109.161 32.54 109.341 32.728 109.469 32.968C109.605 33.208 109.673 33.492 109.673 33.82C109.673 33.876 109.661 33.948 109.637 34.036C109.613 34.116 109.589 34.176 109.565 34.216L109.949 33.664H105.989V34.48H110.705C110.705 34.464 110.705 34.428 110.705 34.372C110.713 34.308 110.717 34.248 110.717 34.192C110.717 33.608 110.613 33.104 110.405 32.68C110.197 32.256 109.897 31.932 109.505 31.708C109.121 31.476 108.657 31.36 108.113 31.36C107.569 31.36 107.089 31.48 106.673 31.72C106.265 31.96 105.945 32.296 105.713 32.728C105.489 33.16 105.377 33.664 105.377 34.24C105.377 34.808 105.485 35.308 105.701 35.74C105.925 36.172 106.233 36.512 106.625 36.76C107.025 37 107.481 37.12 107.993 37.12ZM112.261 35.308L111.505 35.776C111.609 35.992 111.761 36.204 111.961 36.412C112.169 36.62 112.421 36.792 112.717 36.928C113.013 37.056 113.345 37.12 113.713 37.12C114.281 37.12 114.737 36.96 115.081 36.64C115.433 36.32 115.609 35.92 115.609 35.44C115.609 35.112 115.529 34.844 115.369 34.636C115.217 34.428 115.009 34.252 114.745 34.108C114.481 33.956 114.189 33.816 113.869 33.688C113.677 33.608 113.493 33.524 113.317 33.436C113.141 33.348 112.997 33.248 112.885 33.136C112.773 33.024 112.717 32.896 112.717 32.752C112.717 32.568 112.789 32.432 112.933 32.344C113.077 32.256 113.249 32.212 113.449 32.212C113.737 32.212 113.993 32.28 114.217 32.416C114.449 32.552 114.641 32.724 114.793 32.932L115.561 32.44C115.449 32.232 115.293 32.048 115.093 31.888C114.893 31.728 114.661 31.6 114.397 31.504C114.141 31.408 113.865 31.36 113.569 31.36C113.273 31.36 112.985 31.412 112.705 31.516C112.433 31.62 112.209 31.78 112.033 31.996C111.865 32.212 111.781 32.484 111.781 32.812C111.781 33.132 111.861 33.4 112.021 33.616C112.189 33.824 112.393 33.996 112.633 34.132C112.881 34.26 113.125 34.372 113.365 34.468C113.581 34.548 113.785 34.636 113.977 34.732C114.169 34.82 114.325 34.932 114.445 35.068C114.573 35.196 114.637 35.356 114.637 35.548C114.637 35.764 114.557 35.936 114.397 36.064C114.245 36.184 114.033 36.244 113.761 36.244C113.537 36.244 113.329 36.204 113.137 36.124C112.953 36.036 112.789 35.92 112.645 35.776C112.501 35.632 112.373 35.476 112.261 35.308ZM116.873 29.2C116.873 29.376 116.937 29.532 117.065 29.668C117.201 29.796 117.357 29.86 117.533 29.86C117.717 29.86 117.873 29.796 118.001 29.668C118.129 29.532 118.193 29.376 118.193 29.2C118.193 29.016 118.129 28.86 118.001 28.732C117.873 28.604 117.717 28.54 117.533 28.54C117.357 28.54 117.201 28.604 117.065 28.732C116.937 28.86 116.873 29.016 116.873 29.2ZM117.053 31.48V37H118.013V31.48H117.053ZM119.618 37.36C119.618 37.832 119.734 38.248 119.966 38.608C120.198 38.976 120.518 39.26 120.926 39.46C121.342 39.66 121.818 39.76 122.354 39.76C122.818 39.76 123.258 39.652 123.674 39.436C124.09 39.22 124.43 38.896 124.694 38.464C124.958 38.04 125.09 37.512 125.09 36.88V31.48H124.13V36.88C124.13 37.344 124.038 37.72 123.854 38.008C123.678 38.304 123.454 38.52 123.182 38.656C122.91 38.792 122.634 38.86 122.354 38.86C121.994 38.86 121.682 38.788 121.418 38.644C121.154 38.508 120.95 38.324 120.806 38.092C120.662 37.868 120.59 37.624 120.59 37.36H119.618ZM119.51 34.24C119.51 34.832 119.634 35.344 119.882 35.776C120.13 36.208 120.462 36.54 120.878 36.772C121.294 37.004 121.75 37.12 122.246 37.12C122.71 37.12 123.114 37.004 123.458 36.772C123.802 36.54 124.07 36.208 124.262 35.776C124.462 35.344 124.562 34.832 124.562 34.24C124.562 33.64 124.462 33.128 124.262 32.704C124.07 32.272 123.802 31.94 123.458 31.708C123.114 31.476 122.71 31.36 122.246 31.36C121.75 31.36 121.294 31.476 120.878 31.708C120.462 31.94 120.13 32.272 119.882 32.704C119.634 33.128 119.51 33.64 119.51 34.24ZM120.482 34.24C120.482 33.816 120.566 33.456 120.734 33.16C120.91 32.864 121.142 32.64 121.43 32.488C121.718 32.336 122.03 32.26 122.366 32.26C122.574 32.26 122.782 32.304 122.99 32.392C123.198 32.48 123.386 32.608 123.554 32.776C123.73 32.944 123.87 33.152 123.974 33.4C124.078 33.64 124.13 33.92 124.13 34.24C124.13 34.664 124.042 35.024 123.866 35.32C123.69 35.616 123.466 35.84 123.194 35.992C122.922 36.144 122.646 36.22 122.366 36.22C122.03 36.22 121.718 36.144 121.43 35.992C121.142 35.84 120.91 35.616 120.734 35.32C120.566 35.024 120.482 34.664 120.482 34.24ZM130.374 33.64V37H131.334V33.52C131.334 32.856 131.162 32.332 130.818 31.948C130.482 31.556 130.022 31.36 129.438 31.36C129.078 31.36 128.758 31.44 128.478 31.6C128.206 31.76 127.978 32.008 127.794 32.344V31.48H126.834V37H127.794V33.64C127.794 33.368 127.85 33.128 127.962 32.92C128.082 32.712 128.246 32.552 128.454 32.44C128.67 32.32 128.918 32.26 129.198 32.26C129.582 32.26 129.874 32.376 130.074 32.608C130.274 32.84 130.374 33.184 130.374 33.64Z" fill="black"/>
</svg>
